M48
METRIC,TZ
T1C0.800
T2C1.000
%
G90
G05
T1
X63200Y-79600
X63200Y-86100
X75450Y-94700
X78888Y-75888
X80200Y-93200
X91800Y-90000
X92900Y-72800
X84680Y-99200
X84680Y-101740
X84680Y-104280
X84680Y-106820
X84680Y-109360
X84680Y-111900
X84680Y-114440
X84680Y-116980
X84680Y-119520
X92300Y-99200
X92300Y-101740
X92300Y-104280
X92300Y-106820
X92300Y-109360
X92300Y-111900
X92300Y-114440
X92300Y-116980
X92300Y-119520
T2
X82750Y-93200
X85290Y-93200
X87830Y-93200
X90370Y-93200
X83400Y-61500
X85940Y-61500
X73700Y-66040
X76200Y-66040
X86240Y-75600
X96400Y-75600
X101400Y-102400
X103940Y-102400
X106480Y-102400
X65100Y-118400
X67600Y-118400
X92250Y-61500
X94790Y-61500
X103700Y-66000
X106200Y-66000
T0
M30
